<svg width="76" height="30" viewBox="0 0 76 30" fill="none" xmlns="http://www.w3.org/2000/svg">
<path d="M5.07407 12.7407V27.5556H31" stroke="#15164C" stroke-linecap="round" stroke-linejoin="round"/>
<path d="M26.5556 12.7407V27.5556H5.07407" stroke="#15164C"/>
<rect x="11.1296" y="13.2407" width="3.44444" height="3.44444" rx="0.5" fill="#15164C" stroke="#15164C"/>
<rect x="17.0556" y="13.2407" width="3.44444" height="3.44444" rx="0.5" fill="#15164C" stroke="#15164C"/>
<rect x="17.0556" y="19.1667" width="3.44444" height="3.44444" rx="0.5" fill="#15164C" stroke="#15164C"/>
<rect x="11.1296" y="19.1667" width="3.44444" height="3.44444" rx="0.5" fill="#15164C" stroke="#15164C"/>
<path d="M1 16.8148L15.1077 2.70711C15.4982 2.31658 16.1314 2.31658 16.5219 2.70711L30.6296 16.8148" stroke="#15164C" stroke-linecap="round"/>
<path d="M37.2102 9H34.6321V1.72727H37.2315C37.9631 1.72727 38.5928 1.87287 39.1207 2.16406C39.6487 2.45289 40.0547 2.86837 40.3388 3.41051C40.6252 3.95265 40.7685 4.60133 40.7685 5.35653C40.7685 6.11411 40.6252 6.76515 40.3388 7.30966C40.0547 7.85417 39.6463 8.27202 39.1136 8.56321C38.5833 8.8544 37.9489 9 37.2102 9ZM36.1697 7.68253H37.1463C37.6009 7.68253 37.9832 7.60204 38.2933 7.44105C38.6058 7.2777 38.8402 7.02557 38.9964 6.68466C39.1551 6.34138 39.2344 5.89867 39.2344 5.35653C39.2344 4.81913 39.1551 4.37997 38.9964 4.03906C38.8402 3.69815 38.607 3.44721 38.2969 3.28622C37.9867 3.12524 37.6044 3.04474 37.1499 3.04474H36.1697V7.68253ZM44.3649 9.10653C43.8038 9.10653 43.3208 8.9929 42.916 8.76562C42.5136 8.53598 42.2034 8.21165 41.9856 7.79261C41.7678 7.37121 41.6589 6.87287 41.6589 6.29759C41.6589 5.73651 41.7678 5.24408 41.9856 4.82031C42.2034 4.39654 42.51 4.06629 42.9054 3.82955C43.3031 3.5928 43.7695 3.47443 44.3045 3.47443C44.6644 3.47443 44.9993 3.53243 45.3095 3.64844C45.622 3.76207 45.8942 3.93371 46.1262 4.16335C46.3606 4.39299 46.5429 4.68182 46.6731 5.02983C46.8033 5.37547 46.8684 5.7803 46.8684 6.24432V6.6598H42.2626V5.7223H45.4444C45.4444 5.5045 45.3971 5.31155 45.3024 5.14347C45.2077 4.97538 45.0763 4.84399 44.9082 4.74929C44.7425 4.65223 44.5495 4.60369 44.3294 4.60369C44.0997 4.60369 43.8961 4.65696 43.7186 4.76349C43.5434 4.86766 43.4061 5.00852 43.3066 5.18608C43.2072 5.36127 43.1563 5.55658 43.1539 5.77202V6.66335C43.1539 6.93324 43.2037 7.16643 43.3031 7.36293C43.4049 7.55942 43.5481 7.71094 43.7328 7.81747C43.9174 7.92401 44.1364 7.97727 44.3897 7.97727C44.5578 7.97727 44.7117 7.9536 44.8514 7.90625C44.9911 7.8589 45.1106 7.78788 45.21 7.69318C45.3095 7.59848 45.3852 7.48248 45.4373 7.34517L46.8365 7.4375C46.7654 7.77367 46.6199 8.06723 46.3997 8.31818C46.1819 8.56676 45.9002 8.76089 45.5545 8.90057C45.2112 9.03788 44.8147 9.10653 44.3649 9.10653ZM47.8556 9V3.54545H49.3684V9H47.8556ZM48.6156 2.84233C48.3907 2.84233 48.1977 2.76776 48.0368 2.61861C47.8781 2.46709 47.7988 2.28598 47.7988 2.07528C47.7988 1.86695 47.8781 1.68821 48.0368 1.53906C48.1977 1.38755 48.3907 1.31179 48.6156 1.31179C48.8405 1.31179 49.0323 1.38755 49.1909 1.53906C49.3519 1.68821 49.4324 1.86695 49.4324 2.07528C49.4324 2.28598 49.3519 2.46709 49.1909 2.61861C49.0323 2.76776 48.8405 2.84233 48.6156 2.84233ZM51.8445 3.54545L52.8459 5.45241L53.8722 3.54545H55.424L53.8438 6.27273L55.4666 9H53.9219L52.8459 7.11435L51.7876 9H50.2251L51.8445 6.27273L50.282 3.54545H51.8445ZM57.8485 9.10298C57.5005 9.10298 57.1904 9.04261 56.9181 8.92188C56.6459 8.79877 56.4305 8.61766 56.2718 8.37855C56.1156 8.13707 56.0375 7.83641 56.0375 7.47656C56.0375 7.17353 56.0931 6.91903 56.2044 6.71307C56.3156 6.5071 56.4672 6.34138 56.6589 6.21591C56.8507 6.09044 57.0685 5.99574 57.3123 5.93182C57.5585 5.8679 57.8166 5.82292 58.0865 5.79688C58.4037 5.76373 58.6594 5.73295 58.8535 5.70455C59.0476 5.67377 59.1885 5.62879 59.2761 5.5696C59.3637 5.51042 59.4075 5.42282 59.4075 5.30682V5.28551C59.4075 5.06061 59.3365 4.8866 59.1944 4.76349C59.0547 4.64039 58.8559 4.57884 58.5978 4.57884C58.3256 4.57884 58.109 4.6392 57.948 4.75994C57.787 4.87831 57.6805 5.02746 57.6284 5.20739L56.2292 5.09375C56.3002 4.76231 56.4399 4.47585 56.6483 4.23438C56.8566 3.99053 57.1253 3.8035 57.4544 3.6733C57.7858 3.54072 58.1693 3.47443 58.6049 3.47443C58.908 3.47443 59.198 3.50994 59.475 3.58097C59.7543 3.65199 60.0017 3.76207 60.2172 3.91122C60.435 4.06037 60.6066 4.25213 60.7321 4.48651C60.8575 4.71851 60.9203 4.99669 60.9203 5.32102V9H59.4856V8.24361H59.443C59.3554 8.41406 59.2382 8.56439 59.0914 8.6946C58.9447 8.82244 58.7683 8.92306 58.5623 8.99645C58.3564 9.06747 58.1184 9.10298 57.8485 9.10298ZM58.2818 8.05895C58.5043 8.05895 58.7008 8.01515 58.8713 7.92756C59.0417 7.83759 59.1755 7.71686 59.2725 7.56534C59.3696 7.41383 59.4181 7.24219 59.4181 7.05043V6.47159C59.3708 6.50237 59.3057 6.53078 59.2228 6.55682C59.1423 6.58049 59.0512 6.60298 58.9494 6.62429C58.8476 6.64323 58.7458 6.66098 58.644 6.67756C58.5422 6.69176 58.4499 6.70478 58.367 6.71662C58.1895 6.74266 58.0344 6.78409 57.9018 6.84091C57.7692 6.89773 57.6663 6.97467 57.5929 7.07173C57.5195 7.16643 57.4828 7.2848 57.4828 7.42685C57.4828 7.63281 57.5574 7.79025 57.7065 7.89915C57.858 8.00568 58.0498 8.05895 58.2818 8.05895ZM41.049 14.2734H39.4936C39.4652 14.0722 39.4072 13.8935 39.3196 13.7372C39.232 13.5786 39.1196 13.4437 38.9822 13.3324C38.8449 13.2211 38.6863 13.1359 38.5064 13.0767C38.3288 13.0175 38.1359 12.9879 37.9276 12.9879C37.5511 12.9879 37.2232 13.0814 36.9439 13.2685C36.6645 13.4531 36.4479 13.723 36.294 14.0781C36.1402 14.4309 36.0632 14.8594 36.0632 15.3636C36.0632 15.8821 36.1402 16.3177 36.294 16.6705C36.4503 17.0232 36.6681 17.2895 36.9474 17.4695C37.2268 17.6494 37.55 17.7393 37.9169 17.7393C38.1229 17.7393 38.3134 17.7121 38.4886 17.6577C38.6662 17.6032 38.8236 17.5239 38.9609 17.4197C39.0982 17.3132 39.2119 17.1842 39.3018 17.0327C39.3942 16.8812 39.4581 16.7083 39.4936 16.5142L41.049 16.5213C41.0088 16.8551 40.9081 17.1771 40.7472 17.4872C40.5885 17.795 40.3743 18.0708 40.1044 18.3146C39.8369 18.5561 39.5173 18.7479 39.1456 18.8899C38.7763 19.0296 38.3584 19.0994 37.892 19.0994C37.2434 19.0994 36.6634 18.9527 36.152 18.6591C35.643 18.3655 35.2405 17.9406 34.9446 17.3842C34.651 16.8279 34.5043 16.1544 34.5043 15.3636C34.5043 14.5705 34.6534 13.8958 34.9517 13.3395C35.25 12.7831 35.6548 12.3594 36.1662 12.0682C36.6776 11.7746 37.2528 11.6278 37.892 11.6278C38.3134 11.6278 38.7041 11.687 39.0639 11.8054C39.4261 11.9238 39.7469 12.0966 40.0263 12.3239C40.3056 12.5488 40.5329 12.8246 40.7081 13.1513C40.8857 13.478 40.9993 13.852 41.049 14.2734ZM44.5877 19.1065C44.0361 19.1065 43.5591 18.9893 43.1566 18.755C42.7565 18.5182 42.4476 18.1892 42.2298 17.7678C42.012 17.344 41.9031 16.8527 41.9031 16.294C41.9031 15.7306 42.012 15.2382 42.2298 14.8168C42.4476 14.393 42.7565 14.0639 43.1566 13.8295C43.5591 13.5928 44.0361 13.4744 44.5877 13.4744C45.1393 13.4744 45.6152 13.5928 46.0153 13.8295C46.4177 14.0639 46.7279 14.393 46.9457 14.8168C47.1635 15.2382 47.2724 15.7306 47.2724 16.294C47.2724 16.8527 47.1635 17.344 46.9457 17.7678C46.7279 18.1892 46.4177 18.5182 46.0153 18.755C45.6152 18.9893 45.1393 19.1065 44.5877 19.1065ZM44.5948 17.9347C44.8458 17.9347 45.0553 17.8636 45.2234 17.7216C45.3915 17.5772 45.5181 17.3807 45.6033 17.1321C45.6909 16.8835 45.7347 16.6006 45.7347 16.2834C45.7347 15.9661 45.6909 15.6832 45.6033 15.4347C45.5181 15.1861 45.3915 14.9896 45.2234 14.8452C45.0553 14.7008 44.8458 14.6286 44.5948 14.6286C44.3415 14.6286 44.1284 14.7008 43.9556 14.8452C43.7852 14.9896 43.6561 15.1861 43.5685 15.4347C43.4833 15.6832 43.4407 15.9661 43.4407 16.2834C43.4407 16.6006 43.4833 16.8835 43.5685 17.1321C43.6561 17.3807 43.7852 17.5772 43.9556 17.7216C44.1284 17.8636 44.3415 17.9347 44.5948 17.9347ZM48.256 19V13.5455H49.6978V14.5078H49.7617C49.8754 14.1882 50.0647 13.9361 50.3299 13.7514C50.5951 13.5668 50.9123 13.4744 51.2816 13.4744C51.6557 13.4744 51.9741 13.5679 52.2369 13.755C52.4996 13.9396 52.6748 14.1906 52.7624 14.5078H52.8192C52.9305 14.1953 53.1317 13.9455 53.4229 13.7585C53.7165 13.5691 54.0633 13.4744 54.4634 13.4744C54.9724 13.4744 55.3855 13.6366 55.7028 13.9609C56.0224 14.2829 56.1822 14.7398 56.1822 15.3317V19H54.6729V15.63C54.6729 15.3269 54.5924 15.0997 54.4315 14.9482C54.2705 14.7966 54.0692 14.7209 53.8278 14.7209C53.5531 14.7209 53.3389 14.8085 53.185 14.9837C53.0311 15.1565 52.9542 15.3849 52.9542 15.669V19H51.4876V15.598C51.4876 15.3305 51.4106 15.1174 51.2567 14.9588C51.1052 14.8002 50.9052 14.7209 50.6566 14.7209C50.4885 14.7209 50.337 14.7635 50.2021 14.8487C50.0695 14.9316 49.9641 15.0488 49.886 15.2003C49.8079 15.3494 49.7688 15.5246 49.7688 15.7259V19H48.256ZM57.3771 19V13.5455H58.8899V19H57.3771ZM58.1371 12.8423C57.9122 12.8423 57.7192 12.7678 57.5582 12.6186C57.3996 12.4671 57.3203 12.286 57.3203 12.0753C57.3203 11.867 57.3996 11.6882 57.5582 11.5391C57.7192 11.3875 57.9122 11.3118 58.1371 11.3118C58.362 11.3118 58.5537 11.3875 58.7124 11.5391C58.8733 11.6882 58.9538 11.867 58.9538 12.0753C58.9538 12.286 58.8733 12.4671 58.7124 12.6186C58.5537 12.7678 58.362 12.8423 58.1371 12.8423ZM62.5591 21.1591C62.0691 21.1591 61.6489 21.0916 61.2985 20.9567C60.9505 20.8241 60.6735 20.643 60.4675 20.4134C60.2615 20.1837 60.1278 19.9257 60.0662 19.6392L61.4654 19.451C61.508 19.5599 61.5755 19.6617 61.6678 19.7564C61.7601 19.8511 61.882 19.9268 62.0336 19.9837C62.1874 20.0429 62.3745 20.0724 62.5946 20.0724C62.9237 20.0724 63.1948 19.992 63.4078 19.831C63.6233 19.6723 63.731 19.406 63.731 19.032V18.0341H63.6671C63.6008 18.1856 63.5014 18.3288 63.3688 18.4638C63.2362 18.5987 63.0658 18.7088 62.8574 18.794C62.6491 18.8793 62.4005 18.9219 62.1117 18.9219C61.7021 18.9219 61.3292 18.8272 60.9931 18.6378C60.6593 18.446 60.3929 18.1536 60.1941 17.7607C59.9976 17.3653 59.8993 16.8658 59.8993 16.2621C59.8993 15.6442 59.9999 15.1281 60.2012 14.7138C60.4024 14.2995 60.6699 13.9893 61.0037 13.7834C61.3399 13.5774 61.708 13.4744 62.1081 13.4744C62.4135 13.4744 62.6692 13.5265 62.8752 13.6307C63.0811 13.7325 63.2469 13.8603 63.3723 14.0142C63.5002 14.1657 63.5984 14.3149 63.6671 14.4616H63.7239V13.5455H65.226V19.0533C65.226 19.5173 65.1124 19.9055 64.8851 20.218C64.6578 20.5305 64.343 20.7649 63.9405 20.9212C63.5404 21.0798 63.08 21.1591 62.5591 21.1591ZM62.5911 17.7855C62.8349 17.7855 63.0409 17.7251 63.209 17.6044C63.3794 17.4813 63.5096 17.3061 63.5996 17.0788C63.6919 16.8492 63.7381 16.5746 63.7381 16.255C63.7381 15.9354 63.6931 15.6584 63.6032 15.424C63.5132 15.1873 63.383 15.0038 63.2125 14.8736C63.0421 14.7434 62.8349 14.6783 62.5911 14.6783C62.3425 14.6783 62.133 14.7457 61.9625 14.8807C61.7921 15.0133 61.6631 15.1979 61.5755 15.4347C61.4879 15.6714 61.4441 15.9448 61.4441 16.255C61.4441 16.5698 61.4879 16.8421 61.5755 17.0717C61.6654 17.299 61.7944 17.4754 61.9625 17.6009C62.133 17.724 62.3425 17.7855 62.5911 17.7855ZM68.8944 19.1065C68.3427 19.1065 67.8657 18.9893 67.4632 18.755C67.0632 18.5182 66.7542 18.1892 66.5364 17.7678C66.3186 17.344 66.2097 16.8527 66.2097 16.294C66.2097 15.7306 66.3186 15.2382 66.5364 14.8168C66.7542 14.393 67.0632 14.0639 67.4632 13.8295C67.8657 13.5928 68.3427 13.4744 68.8944 13.4744C69.446 13.4744 69.9218 13.5928 70.3219 13.8295C70.7244 14.0639 71.0345 14.393 71.2523 14.8168C71.4701 15.2382 71.579 15.7306 71.579 16.294C71.579 16.8527 71.4701 17.344 71.2523 17.7678C71.0345 18.1892 70.7244 18.5182 70.3219 18.755C69.9218 18.9893 69.446 19.1065 68.8944 19.1065ZM68.9015 17.9347C69.1524 17.9347 69.3619 17.8636 69.53 17.7216C69.6981 17.5772 69.8248 17.3807 69.91 17.1321C69.9976 16.8835 70.0414 16.6006 70.0414 16.2834C70.0414 15.9661 69.9976 15.6832 69.91 15.4347C69.8248 15.1861 69.6981 14.9896 69.53 14.8452C69.3619 14.7008 69.1524 14.6286 68.9015 14.6286C68.6481 14.6286 68.4351 14.7008 68.2623 14.8452C68.0918 14.9896 67.9628 15.1861 67.8752 15.4347C67.79 15.6832 67.7473 15.9661 67.7473 16.2834C67.7473 16.6006 67.79 16.8835 67.8752 17.1321C67.9628 17.3807 68.0918 17.5772 68.2623 17.7216C68.4351 17.8636 68.6481 17.9347 68.9015 17.9347ZM74.3702 11.7273L74.2317 16.8196H72.932L72.79 11.7273H74.3702ZM73.5819 19.0923C73.3475 19.0923 73.1462 19.0095 72.9782 18.8438C72.8101 18.6757 72.7272 18.4744 72.7296 18.2401C72.7272 18.008 72.8101 17.8092 72.9782 17.6435C73.1462 17.4777 73.3475 17.3949 73.5819 17.3949C73.8068 17.3949 74.0044 17.4777 74.1749 17.6435C74.3453 17.8092 74.4318 18.008 74.4341 18.2401C74.4318 18.3963 74.3903 18.5395 74.3098 18.6697C74.2317 18.7976 74.1287 18.9006 74.0009 18.9787C73.873 19.0545 73.7334 19.0923 73.5819 19.0923Z" fill="#15164C"/>
<path d="M34.5284 27V22.6364H37.1449V23.1051H35.0568V24.5795H36.9489V25.0483H35.0568V27H34.5284ZM37.6839 27H37.13L38.7322 22.6364H39.2777L40.88 27H40.326L39.022 23.3267H38.9879L37.6839 27ZM37.8885 25.2955H40.1214V25.7642H37.8885V25.2955ZM41.8153 22.6364L42.9403 24.4517H42.9744L44.0994 22.6364H44.7216L43.3494 24.8182L44.7216 27H44.0994L42.9744 25.2188H42.9403L41.8153 27H41.1932L42.5994 24.8182L41.1932 22.6364H41.8153ZM45.9377 22.6364V27H45.4093V22.6364H45.9377ZM50.4574 22.6364V27H49.946L47.5682 23.5739H47.5256V27H46.9972V22.6364H47.5085L49.8949 26.071H49.9375V22.6364H50.4574ZM51.6937 27H51.1397L52.742 22.6364H53.2875L54.8897 27H54.3358L53.0318 23.3267H52.9977L51.6937 27ZM51.8983 25.2955H54.1312V25.7642H51.8983V25.2955Z" fill="#15164C"/>
<path d="M23.5 1L24.1752 2.82477L26 3.5L24.1752 4.17523L23.5 6L22.8248 4.17523L21 3.5L22.8248 2.82477L23.5 1Z" fill="#15164C"/>
<path d="M26.5 6L26.9051 7.09486L28 7.5L26.9051 7.90514L26.5 9L26.0949 7.90514L25 7.5L26.0949 7.09486L26.5 6Z" fill="#15164C"/>
</svg>
