<svg width="92" height="92" viewBox="0 0 92 92" fill="none" xmlns="http://www.w3.org/2000/svg">
<g filter="url(#filter0_d_46_434)">
<rect x="11" y="7" width="70" height="70" rx="15" fill="#3758F9"/>
</g>
<path d="M57.8888 59H39.4446V37.5554L51.0554 25.6666L52.8333 27.222C53.0092 27.3795 53.1457 27.5972 53.2429 27.875C53.3401 28.1527 53.3888 28.4629 53.3888 28.8054V29.2779L51.5279 37.5554H63.4167C64.1575 37.5554 64.8057 37.8332 65.3613 38.3887C65.9168 38.9443 66.1946 39.5925 66.1946 40.3333V43.7179C66.1946 43.9151 66.1992 44.1202 66.2083 44.3333C66.2175 44.5464 66.1851 44.7501 66.1113 44.9445L60.9446 56.9166C60.6968 57.4952 60.2839 57.9872 59.7058 58.3925C59.1278 58.7975 58.5221 59 57.8888 59ZM42.2221 56.222H58.25L63.4167 44.0279V40.3333H48.0554L50.2779 30.3612L42.2221 38.722V56.222ZM39.4446 37.5554V40.3333H34.0833V56.222H39.4446V59H31.3054V37.5554H39.4446Z" fill="white"/>
<defs>
<filter id="filter0_d_46_434" x="0" y="0" width="92" height="92" filterUnits="userSpaceOnUse" color-interpolation-filters="sRGB">
<feFlood flood-opacity="0" result="BackgroundImageFix"/>
<feColorMatrix in="SourceAlpha" type="matrix" values="0 0 0 0 0 0 0 0 0 0 0 0 0 0 0 0 0 0 127 0" result="hardAlpha"/>
<feOffset dy="4"/>
<feGaussianBlur stdDeviation="5.5"/>
<feColorMatrix type="matrix" values="0 0 0 0 0 0 0 0 0 0 0 0 0 0 0 0 0 0 0.06 0"/>
<feBlend mode="normal" in2="BackgroundImageFix" result="effect1_dropShadow_46_434"/>
<feBlend mode="normal" in="SourceGraphic" in2="effect1_dropShadow_46_434" result="shape"/>
</filter>
</defs>
</svg>
