<svg width="92" height="92" viewBox="0 0 92 92" fill="none" xmlns="http://www.w3.org/2000/svg">
<g filter="url(#filter0_d_46_426)">
<rect x="11" y="7" width="70" height="70" rx="15" fill="#3758F9"/>
</g>
<path d="M32.5 55.5V52.5L35.5 49.5V55.5H32.5ZM38.5 55.5V46.5L41.5 43.5V55.5H38.5ZM44.5 55.5V43.5L47.5 46.5375V55.5H44.5ZM50.5 55.5V46.5375L53.5 43.5375V55.5H50.5ZM56.5 55.5V40.5L59.5 37.5V55.5H56.5ZM32.5 47.7375V43.5L43 33L49 39L59.5 28.5V32.7375L49 43.2375L43 37.2375L32.5 47.7375Z" fill="white"/>
<defs>
<filter id="filter0_d_46_426" x="0" y="0" width="92" height="92" filterUnits="userSpaceOnUse" color-interpolation-filters="sRGB">
<feFlood flood-opacity="0" result="BackgroundImageFix"/>
<feColorMatrix in="SourceAlpha" type="matrix" values="0 0 0 0 0 0 0 0 0 0 0 0 0 0 0 0 0 0 127 0" result="hardAlpha"/>
<feOffset dy="4"/>
<feGaussianBlur stdDeviation="5.5"/>
<feColorMatrix type="matrix" values="0 0 0 0 0 0 0 0 0 0 0 0 0 0 0 0 0 0 0.06 0"/>
<feBlend mode="normal" in2="BackgroundImageFix" result="effect1_dropShadow_46_426"/>
<feBlend mode="normal" in="SourceGraphic" in2="effect1_dropShadow_46_426" result="shape"/>
</filter>
</defs>
</svg>
