<svg width="62" height="52" viewBox="0 0 62 52" fill="none" xmlns="http://www.w3.org/2000/svg">
<path d="M9.14813 21.4814V51.1112H61" stroke="#15164C" stroke-linecap="round" stroke-linejoin="round"/>
<path d="M52.1112 21.4814V51.1112H9.14813" stroke="#15164C"/>
<path d="M27.1481 22.4814H22.2592C21.7069 22.4814 21.2592 22.9291 21.2592 23.4814V28.3703C21.2592 28.9226 21.7069 29.3703 22.2592 29.3703H27.1481C27.7004 29.3703 28.1481 28.9226 28.1481 28.3703V23.4814C28.1481 22.9291 27.7004 22.4814 27.1481 22.4814Z" fill="#15164C" stroke="#15164C"/>
<path d="M39.0001 22.4814H34.1112C33.5589 22.4814 33.1112 22.9291 33.1112 23.4814V28.3703C33.1112 28.9226 33.5589 29.3703 34.1112 29.3703H39.0001C39.5524 29.3703 40.0001 28.9226 40.0001 28.3703V23.4814C40.0001 22.9291 39.5524 22.4814 39.0001 22.4814Z" fill="#15164C" stroke="#15164C"/>
<path d="M39.0001 34.3334H34.1112C33.5589 34.3334 33.1112 34.7811 33.1112 35.3334V40.2223C33.1112 40.7746 33.5589 41.2223 34.1112 41.2223H39.0001C39.5524 41.2223 40.0001 40.7746 40.0001 40.2223V35.3334C40.0001 34.7811 39.5524 34.3334 39.0001 34.3334Z" fill="#15164C" stroke="#15164C"/>
<path d="M27.1481 34.3334H22.2592C21.7069 34.3334 21.2592 34.7811 21.2592 35.3334V40.2223C21.2592 40.7746 21.7069 41.2223 22.2592 41.2223H27.1481C27.7004 41.2223 28.1481 40.7746 28.1481 40.2223V35.3334C28.1481 34.7811 27.7004 34.3334 27.1481 34.3334Z" fill="#15164C" stroke="#15164C"/>
<path d="M1 29.6296L29.2154 1.41422C29.9964 0.633161 31.2628 0.633161 32.0438 1.41422L60.2592 29.6296" stroke="#15164C" stroke-linecap="round"/>
</svg>
