<svg width="92" height="92" viewBox="0 0 92 92" fill="none" xmlns="http://www.w3.org/2000/svg">
<g filter="url(#filter0_d_46_394)">
<rect x="11" y="7" width="70" height="70" rx="15" fill="#3758F9"/>
</g>
<path d="M46.075 52.5L50.35 48.2625L46.075 44.025L44.5 45.6L46.1125 47.2125C45.4125 47.2375 44.7313 47.125 44.0688 46.875C43.4063 46.625 42.8125 46.2375 42.2875 45.7125C41.7875 45.2125 41.4062 44.6375 41.1438 43.9875C40.8813 43.3375 40.75 42.6875 40.75 42.0375C40.75 41.6125 40.8063 41.1875 40.9188 40.7625C41.0312 40.3375 41.1875 39.925 41.3875 39.525L39.7375 37.875C39.3125 38.5 39 39.1625 38.8 39.8625C38.6 40.5625 38.5 41.275 38.5 42C38.5 42.95 38.6875 43.8875 39.0625 44.8125C39.4375 45.7375 39.9875 46.5625 40.7125 47.2875C41.4375 48.0125 42.25 48.5563 43.15 48.9188C44.05 49.2812 44.975 49.475 45.925 49.5L44.5 50.925L46.075 52.5ZM52.2625 46.125C52.6875 45.5 53 44.8375 53.2 44.1375C53.4 43.4375 53.5 42.725 53.5 42C53.5 41.05 53.3188 40.1063 52.9563 39.1688C52.5938 38.2313 52.05 37.4 51.325 36.675C50.6 35.95 49.7812 35.4125 48.8688 35.0625C47.9563 34.7125 47.025 34.5375 46.075 34.5375L47.5 33.075L45.925 31.5L41.65 35.7375L45.925 39.975L47.5 38.4L45.85 36.75C46.525 36.75 47.2125 36.8813 47.9125 37.1438C48.6125 37.4062 49.2125 37.7875 49.7125 38.2875C50.2125 38.7875 50.5938 39.3625 50.8563 40.0125C51.1188 40.6625 51.25 41.3125 51.25 41.9625C51.25 42.3875 51.1938 42.8125 51.0813 43.2375C50.9688 43.6625 50.8125 44.075 50.6125 44.475L52.2625 46.125ZM46 57C43.925 57 41.975 56.6063 40.15 55.8188C38.325 55.0313 36.7375 53.9625 35.3875 52.6125C34.0375 51.2625 32.9688 49.675 32.1813 47.85C31.3938 46.025 31 44.075 31 42C31 39.925 31.3938 37.975 32.1813 36.15C32.9688 34.325 34.0375 32.7375 35.3875 31.3875C36.7375 30.0375 38.325 28.9688 40.15 28.1813C41.975 27.3938 43.925 27 46 27C48.075 27 50.025 27.3938 51.85 28.1813C53.675 28.9688 55.2625 30.0375 56.6125 31.3875C57.9625 32.7375 59.0313 34.325 59.8188 36.15C60.6063 37.975 61 39.925 61 42C61 44.075 60.6063 46.025 59.8188 47.85C59.0313 49.675 57.9625 51.2625 56.6125 52.6125C55.2625 53.9625 53.675 55.0313 51.85 55.8188C50.025 56.6063 48.075 57 46 57ZM46 54C49.35 54 52.1875 52.8375 54.5125 50.5125C56.8375 48.1875 58 45.35 58 42C58 38.65 56.8375 35.8125 54.5125 33.4875C52.1875 31.1625 49.35 30 46 30C42.65 30 39.8125 31.1625 37.4875 33.4875C35.1625 35.8125 34 38.65 34 42C34 45.35 35.1625 48.1875 37.4875 50.5125C39.8125 52.8375 42.65 54 46 54Z" fill="white"/>
<defs>
<filter id="filter0_d_46_394" x="0" y="0" width="92" height="92" filterUnits="userSpaceOnUse" color-interpolation-filters="sRGB">
<feFlood flood-opacity="0" result="BackgroundImageFix"/>
<feColorMatrix in="SourceAlpha" type="matrix" values="0 0 0 0 0 0 0 0 0 0 0 0 0 0 0 0 0 0 127 0" result="hardAlpha"/>
<feOffset dy="4"/>
<feGaussianBlur stdDeviation="5.5"/>
<feColorMatrix type="matrix" values="0 0 0 0 0 0 0 0 0 0 0 0 0 0 0 0 0 0 0.06 0"/>
<feBlend mode="normal" in2="BackgroundImageFix" result="effect1_dropShadow_46_394"/>
<feBlend mode="normal" in="SourceGraphic" in2="effect1_dropShadow_46_394" result="shape"/>
</filter>
</defs>
</svg>
