<svg width="92" height="92" viewBox="0 0 92 92" fill="none" xmlns="http://www.w3.org/2000/svg">
<g filter="url(#filter0_d_46_381)">
<rect x="11" y="7" width="70" height="70" rx="15" fill="#3758F9"/>
</g>
<path d="M49 43.5C47.75 43.5 46.6875 43.0625 45.8125 42.1875C44.9375 41.3125 44.5 40.25 44.5 39C44.5 37.75 44.9375 36.6875 45.8125 35.8125C46.6875 34.9375 47.75 34.5 49 34.5C50.25 34.5 51.3125 34.9375 52.1875 35.8125C53.0625 36.6875 53.5 37.75 53.5 39C53.5 40.25 53.0625 41.3125 52.1875 42.1875C51.3125 43.0625 50.25 43.5 49 43.5ZM38.5 48C37.675 48 36.9688 47.7063 36.3813 47.1188C35.7938 46.5312 35.5 45.825 35.5 45V33C35.5 32.175 35.7938 31.4688 36.3813 30.8813C36.9688 30.2937 37.675 30 38.5 30H59.5C60.325 30 61.0313 30.2937 61.6188 30.8813C62.2063 31.4688 62.5 32.175 62.5 33V45C62.5 45.825 62.2063 46.5312 61.6188 47.1188C61.0313 47.7063 60.325 48 59.5 48H38.5ZM41.5 45H56.5C56.5 44.175 56.7938 43.4688 57.3813 42.8813C57.9688 42.2938 58.675 42 59.5 42V36C58.675 36 57.9688 35.7063 57.3813 35.1188C56.7938 34.5312 56.5 33.825 56.5 33H41.5C41.5 33.825 41.2063 34.5312 40.6188 35.1188C40.0312 35.7063 39.325 36 38.5 36V42C39.325 42 40.0312 42.2938 40.6188 42.8813C41.2063 43.4688 41.5 44.175 41.5 45ZM58 54H32.5C31.675 54 30.9688 53.7063 30.3813 53.1188C29.7937 52.5312 29.5 51.825 29.5 51V34.5H32.5V51H58V54Z" fill="white"/>
<defs>
<filter id="filter0_d_46_381" x="0" y="0" width="92" height="92" filterUnits="userSpaceOnUse" color-interpolation-filters="sRGB">
<feFlood flood-opacity="0" result="BackgroundImageFix"/>
<feColorMatrix in="SourceAlpha" type="matrix" values="0 0 0 0 0 0 0 0 0 0 0 0 0 0 0 0 0 0 127 0" result="hardAlpha"/>
<feOffset dy="4"/>
<feGaussianBlur stdDeviation="5.5"/>
<feColorMatrix type="matrix" values="0 0 0 0 0 0 0 0 0 0 0 0 0 0 0 0 0 0 0.06 0"/>
<feBlend mode="normal" in2="BackgroundImageFix" result="effect1_dropShadow_46_381"/>
<feBlend mode="normal" in="SourceGraphic" in2="effect1_dropShadow_46_381" result="shape"/>
</filter>
</defs>
</svg>
