<svg width="92" height="92" viewBox="0 0 92 92" fill="none" xmlns="http://www.w3.org/2000/svg">
<g filter="url(#filter0_d_46_416)">
<rect x="11" y="7" width="70" height="70" rx="15" fill="#3758F9"/>
</g>
<path d="M45.8125 54.4999C45.9292 54.4999 46.0584 54.4708 46.1999 54.4125C46.3416 54.3543 46.4541 54.2834 46.5374 54.1999L59.0624 41.6501C59.3791 41.3334 59.6146 40.9736 59.7689 40.5709C59.9229 40.1681 59.9999 39.7654 59.9999 39.3626C59.9999 38.9459 59.9229 38.5354 59.7689 38.1311C59.6146 37.7271 59.3791 37.3709 59.0624 37.0624L52.4376 30.4376C52.1291 30.1209 51.7729 29.8854 51.3689 29.7311C50.9646 29.5771 50.5541 29.5001 50.1374 29.5001C49.7346 29.5001 49.3319 29.5771 48.9291 29.7311C48.5264 29.8854 48.1666 30.1209 47.8499 30.4376L47.2626 31.0249L50.2124 34.0125C50.5541 34.3625 50.8375 34.7666 51.0625 35.2249C51.2875 35.6834 51.4 36.1793 51.4 36.7125C51.4 37.6958 51.0354 38.5479 50.3061 39.2689C49.5771 39.9896 48.7209 40.35 47.7374 40.35C47.1541 40.35 46.6479 40.2584 46.2186 40.0751C45.7896 39.8916 45.4027 39.6263 45.058 39.279L42.2875 36.525L35.575 43.2375C35.4667 43.3458 35.3896 43.4605 35.3436 43.5818C35.2979 43.7033 35.275 43.8333 35.275 43.9718C35.275 44.249 35.3709 44.4855 35.5626 44.6813C35.7541 44.877 35.9887 44.9749 36.2665 44.9749C36.4055 44.9749 36.5375 44.9416 36.6625 44.8751C36.7875 44.8084 36.8916 44.7334 36.9749 44.6501L42.1251 39.4999L43.8749 41.25L38.7625 46.3751C38.6542 46.4834 38.5771 46.6021 38.5311 46.7314C38.4854 46.8604 38.4625 46.9916 38.4625 47.1251C38.4625 47.3916 38.5625 47.6249 38.7625 47.8249C38.9625 48.0249 39.1959 48.1249 39.4626 48.1249C39.5959 48.1249 39.725 48.0958 39.85 48.0375C39.975 47.9793 40.0791 47.9084 40.1624 47.8249L45.3126 42.6874L47.0624 44.4375L41.95 49.5626C41.8582 49.6459 41.7854 49.757 41.7314 49.896C41.6771 50.0348 41.65 50.1736 41.65 50.3126C41.65 50.5791 41.75 50.8124 41.95 51.0124C42.15 51.2124 42.3834 51.3124 42.6501 51.3124C42.7834 51.3124 42.9062 51.2895 43.0187 51.2438C43.1312 51.198 43.2416 51.1209 43.3499 51.0124L48.5001 45.8749L50.2499 47.625L45.1 52.7749C44.9917 52.8834 44.9146 53.0021 44.8686 53.1311C44.8229 53.2604 44.8 53.3834 44.8 53.5001C44.8 53.8001 44.8937 54.0418 45.0812 54.225C45.2687 54.4083 45.5125 54.4999 45.8125 54.4999ZM45.8016 57C44.9421 57 44.177 56.6938 43.5062 56.0813C42.8355 55.4688 42.4376 54.7074 42.3126 53.7971C41.4626 53.6741 40.7501 53.3251 40.1751 52.7501C39.6001 52.1751 39.2501 51.4626 39.1251 50.6126C38.2751 50.4876 37.5689 50.1314 37.0064 49.5439C36.4439 48.9564 36.1001 48.2501 35.9751 47.4251C35.0416 47.3001 34.2749 46.9126 33.6749 46.2626C33.0749 45.6126 32.7749 44.8376 32.7749 43.9376C32.7749 43.4876 32.8622 43.0434 33.037 42.6049C33.2115 42.1666 33.4616 41.7816 33.7874 41.4499L42.2875 32.9625L46.675 37.35C46.825 37.5083 46.9945 37.6311 47.1835 37.7186C47.3722 37.8061 47.5611 37.8499 47.7501 37.8499C48.0416 37.8499 48.3082 37.7311 48.55 37.4936C48.7917 37.2561 48.9126 36.9903 48.9126 36.696C48.9126 36.5653 48.8771 36.4208 48.8061 36.2625C48.7354 36.1043 48.6209 35.9501 48.4626 35.8001L43.1001 30.4376C42.7916 30.1209 42.4354 29.8854 42.0314 29.7311C41.6271 29.5771 41.2166 29.5001 40.7999 29.5001C40.3971 29.5001 39.9944 29.5771 39.5916 29.7311C39.1889 29.8854 38.8296 30.1196 38.5139 30.4339L32.95 36.0124C32.6417 36.3209 32.4167 36.6543 32.275 37.0125C32.1332 37.3708 32.0457 37.7624 32.0125 38.1874C31.9792 38.6124 32.0417 39.0311 32.2 39.4436C32.3582 39.8561 32.5624 40.2333 32.8124 40.575L31.0124 42.375C30.5374 41.8168 30.1624 41.1646 29.8874 40.4186C29.6124 39.6729 29.4832 38.9166 29.5 38.1499C29.5167 37.4166 29.6709 36.7104 29.9624 36.0311C30.2541 35.3521 30.6625 34.7501 31.1875 34.2251L36.7251 28.6875C37.2916 28.1293 37.9295 27.7126 38.6387 27.4376C39.3477 27.1626 40.0747 27.0251 40.8197 27.0251C41.565 27.0251 42.2896 27.1626 42.9936 27.4376C43.6979 27.7126 44.3291 28.1293 44.8874 28.6875L45.475 29.2751L46.0626 28.6875C46.6291 28.1293 47.267 27.7126 47.9762 27.4376C48.6852 27.1626 49.4122 27.0251 50.1572 27.0251C50.9025 27.0251 51.6271 27.1626 52.3311 27.4376C53.0354 27.7126 53.6666 28.1293 54.2249 28.6875L60.8125 35.2751C61.3707 35.8334 61.7916 36.4711 62.0751 37.1884C62.3584 37.9056 62.5 38.6348 62.5 39.3758C62.5 40.117 62.3584 40.8396 62.0751 41.5436C61.7916 42.2479 61.3707 42.8791 60.8125 43.4374L48.2875 55.95C47.9542 56.2833 47.5727 56.5416 47.143 56.7251C46.7132 56.9084 46.2661 57 45.8016 57Z" fill="white"/>
<defs>
<filter id="filter0_d_46_416" x="0" y="0" width="92" height="92" filterUnits="userSpaceOnUse" color-interpolation-filters="sRGB">
<feFlood flood-opacity="0" result="BackgroundImageFix"/>
<feColorMatrix in="SourceAlpha" type="matrix" values="0 0 0 0 0 0 0 0 0 0 0 0 0 0 0 0 0 0 127 0" result="hardAlpha"/>
<feOffset dy="4"/>
<feGaussianBlur stdDeviation="5.5"/>
<feColorMatrix type="matrix" values="0 0 0 0 0 0 0 0 0 0 0 0 0 0 0 0 0 0 0.06 0"/>
<feBlend mode="normal" in2="BackgroundImageFix" result="effect1_dropShadow_46_416"/>
<feBlend mode="normal" in="SourceGraphic" in2="effect1_dropShadow_46_416" result="shape"/>
</filter>
</defs>
</svg>
