<svg width="25" height="25" viewBox="0 0 25 25" fill="none" xmlns="http://www.w3.org/2000/svg">
<path fill-rule="evenodd" clip-rule="evenodd" d="M3.64585 12.5C3.64585 7.60998 7.60999 3.64583 12.5 3.64583C17.39 3.64583 21.3542 7.60998 21.3542 12.5C21.3542 17.39 17.39 21.3542 12.5 21.3542C10.7581 21.3542 9.13673 20.8523 7.76872 19.9855C7.51413 19.8243 7.20216 19.7811 6.91337 19.8673L3.91425 20.7624L5.04346 18.1201C5.17693 17.8078 5.14977 17.4501 4.97069 17.1616C4.13093 15.8083 3.64585 14.2124 3.64585 12.5ZM12.5 1.5625C6.4594 1.5625 1.56251 6.45939 1.56251 12.5C1.56251 14.4147 2.05537 16.217 2.9215 17.7841L1.12548 21.9865C0.966708 22.358 1.03709 22.7878 1.30605 23.0893C1.57502 23.3908 1.99407 23.5096 2.38123 23.394L7.06813 21.9953C8.66921 22.913 10.5247 23.4375 12.5 23.4375C18.5406 23.4375 23.4375 18.5406 23.4375 12.5C23.4375 6.45939 18.5406 1.5625 12.5 1.5625ZM14.888 14.7733L13.5191 15.7376C12.8779 15.3724 12.1691 14.8626 11.458 14.1516C10.7188 13.4124 10.1708 12.6493 9.76678 11.9493L10.6368 11.2108C11.0101 10.894 11.1123 10.3597 10.8823 9.92737L9.77378 7.84404C9.62451 7.56351 9.35537 7.36646 9.04286 7.3089C8.73034 7.25134 8.40865 7.33958 8.16923 7.54853L7.84058 7.83536C7.05023 8.52515 6.5828 9.65865 6.97021 10.8064C7.37185 11.9961 8.22898 13.8687 9.98491 15.6247C11.8741 17.5139 13.793 18.2578 14.9152 18.5468C15.8194 18.7795 16.675 18.4675 17.2779 17.9762L17.8941 17.4742C18.1576 17.2595 18.2998 16.9296 18.275 16.5905C18.2501 16.2515 18.0613 15.9458 17.7693 15.7718L16.021 14.7301C15.6679 14.5198 15.2242 14.5367 14.888 14.7733Z" fill="white"/>
</svg>
